<svg width="1280" height="720" xmlns="http://www.w3.org/2000/svg" xmlns:xlink="http://www.w3.org/1999/xlink" overflow="hidden"><defs><clipPath id="clip0"><rect x="0" y="0" width="1280" height="720"/></clipPath><clipPath id="clip1"><rect x="29" y="9" width="112" height="169"/></clipPath><clipPath id="clip2"><rect x="29" y="217" width="112" height="169"/></clipPath><clipPath id="clip3"><rect x="29" y="484" width="251" height="169"/></clipPath></defs><g clip-path="url(#clip0)"><rect x="0" y="0" width="1280" height="720" fill="#FFFFFF"/><path d="M84.8483 112.1 112.606 112.1 112.606 141.246 84.8483 141.246Z" fill="#E2EFDA" fill-rule="evenodd"/><path d="M112.606 112.1 140.363 112.1 140.363 141.246 112.606 141.246Z" fill="#E2EFDA" fill-rule="evenodd"/><path d="M140.363 112.1 168.121 112.1 168.121 141.246 140.363 141.246Z" fill="#E2EFDA" fill-rule="evenodd"/><path d="M168.121 112.1 195.879 112.1 195.879 141.246 168.121 141.246Z" fill="#E2EFDA" fill-rule="evenodd"/><path d="M195.879 112.1 223.636 112.1 223.636 141.246 195.879 141.246Z" fill="#E2EFDA" fill-rule="evenodd"/><path d="M223.636 112.1 251.394 112.1 251.394 141.246 223.636 141.246Z" fill="#E2EFDA" fill-rule="evenodd"/><path d="M251.394 112.1 279.151 112.1 279.151 141.246 251.394 141.246Z" fill="#E2EFDA" fill-rule="evenodd"/><path d="M279.151 112.1 306.909 112.1 306.909 141.246 279.151 141.246Z" fill="#DDEBF7" fill-rule="evenodd"/><path d="M306.909 112.1 334.667 112.1 334.667 141.246 306.909 141.246Z" fill="#DDEBF7" fill-rule="evenodd"/><path d="M334.667 112.1 362.424 112.1 362.424 141.246 334.667 141.246Z" fill="#DDEBF7" fill-rule="evenodd"/><path d="M362.424 112.1 390.182 112.1 390.182 141.246 362.424 141.246Z" fill="#DDEBF7" fill-rule="evenodd"/><path d="M390.182 112.1 417.939 112.1 417.939 141.246 390.182 141.246Z" fill="#DDEBF7" fill-rule="evenodd"/><path d="M417.939 112.1 445.697 112.1 445.697 141.246 417.939 141.246Z" fill="#DDEBF7" fill-rule="evenodd"/><path d="M445.697 112.1 473.454 112.1 473.454 141.246 445.697 141.246Z" fill="#DDEBF7" fill-rule="evenodd"/><path d="M473.454 112.1 501.212 112.1 501.212 141.246 473.454 141.246Z" fill="#DDEBF7" fill-rule="evenodd"/><path d="M501.212 112.1 528.97 112.1 528.97 141.246 501.212 141.246Z" fill="#DDEBF7" fill-rule="evenodd"/><path d="M528.97 112.1 556.727 112.1 556.727 141.246 528.97 141.246Z" fill="#DDEBF7" fill-rule="evenodd"/><path d="M556.727 112.1 584.485 112.1 584.485 141.246 556.727 141.246Z" fill="#DDEBF7" fill-rule="evenodd"/><path d="M584.485 112.1 612.242 112.1 612.242 141.246 584.485 141.246Z" fill="#DDEBF7" fill-rule="evenodd"/><path d="M612.242 112.1 640 112.1 640 141.246 612.242 141.246Z" fill="#DDEBF7" fill-rule="evenodd"/><path d="M640 112.1 667.758 112.1 667.758 141.246 640 141.246Z" fill="#F1E8F8" fill-rule="evenodd"/><path d="M667.758 112.1 695.515 112.1 695.515 141.246 667.758 141.246Z" fill="#F1E8F8" fill-rule="evenodd"/><path d="M695.515 112.1 723.273 112.1 723.273 141.246 695.515 141.246Z" fill="#F1E8F8" fill-rule="evenodd"/><path d="M723.273 112.1 751.03 112.1 751.03 141.246 723.273 141.246Z" fill="#F1E8F8" fill-rule="evenodd"/><path d="M751.03 112.1 778.788 112.1 778.788 141.246 751.03 141.246Z" fill="#F1E8F8" fill-rule="evenodd"/><path d="M778.788 112.1 806.545 112.1 806.545 141.246 778.788 141.246Z" fill="#F1E8F8" fill-rule="evenodd"/><path d="M806.545 112.1 834.303 112.1 834.303 141.246 806.545 141.246Z" fill="#F2F2F2" fill-rule="evenodd"/><path d="M834.303 112.1 862.061 112.1 862.061 141.246 834.303 141.246Z" fill="#F2F2F2" fill-rule="evenodd"/><path d="M862.061 112.1 889.818 112.1 889.818 141.246 862.061 141.246Z" fill="#F2F2F2" fill-rule="evenodd"/><path d="M889.818 112.1 917.576 112.1 917.576 141.246 889.818 141.246Z" fill="#F2F2F2" fill-rule="evenodd"/><path d="M917.576 112.1 945.333 112.1 945.333 141.246 917.576 141.246Z" fill="#F2F2F2" fill-rule="evenodd"/><path d="M945.333 112.1 973.091 112.1 973.091 141.246 945.333 141.246Z" fill="#F2F2F2" fill-rule="evenodd"/><path d="M973.091 112.1 1000.85 112.1 1000.85 141.246 973.091 141.246Z" fill="#F2F2F2" fill-rule="evenodd"/><path d="M1000.85 112.1 1028.61 112.1 1028.61 141.246 1000.85 141.246Z" fill="#F2F2F2" fill-rule="evenodd"/><path d="M1028.61 112.1 1056.36 112.1 1056.36 141.246 1028.61 141.246Z" fill="#F2F2F2" fill-rule="evenodd"/><path d="M1056.36 112.1 1084.12 112.1 1084.12 141.246 1056.36 141.246Z" fill="#F2F2F2" fill-rule="evenodd"/><path d="M1084.12 112.1 1111.88 112.1 1111.88 141.246 1084.12 141.246Z" fill="#F2F2F2" fill-rule="evenodd"/><path d="M1111.88 112.1 1139.64 112.1 1139.64 141.246 1111.88 141.246Z" fill="#F2F2F2" fill-rule="evenodd"/><path d="M1139.64 112.1 1167.39 112.1 1167.39 141.246 1139.64 141.246Z" fill="#F2F2F2" fill-rule="evenodd"/><path d="M1167.39 112.1 1195.15 112.1 1195.15 141.246 1167.39 141.246Z" fill="#F2F2F2" fill-rule="evenodd"/><path d="M1195.15 112.1 1222.91 112.1 1222.91 141.246 1195.15 141.246Z" fill="#F2F2F2" fill-rule="evenodd"/><path d="M84.8483 320.608 112.606 320.608 112.606 349.754 84.8483 349.754Z" fill="#E2EFDA" fill-rule="evenodd"/><path d="M112.606 320.608 140.363 320.608 140.363 349.754 112.606 349.754Z" fill="#E2EFDA" fill-rule="evenodd"/><path d="M140.363 320.608 168.121 320.608 168.121 349.754 140.363 349.754Z" fill="#E2EFDA" fill-rule="evenodd"/><path d="M168.121 320.608 195.879 320.608 195.879 349.754 168.121 349.754Z" fill="#E2EFDA" fill-rule="evenodd"/><path d="M195.879 320.608 223.636 320.608 223.636 349.754 195.879 349.754Z" fill="#E2EFDA" fill-rule="evenodd"/><path d="M251.394 320.608 279.151 320.608 279.151 349.754 251.394 349.754Z" fill="#E2EFDA" fill-rule="evenodd"/><path d="M279.151 320.608 306.909 320.608 306.909 349.754 279.151 349.754Z" fill="#DDEBF7" fill-rule="evenodd"/><path d="M306.909 320.608 334.667 320.608 334.667 349.754 306.909 349.754Z" fill="#DDEBF7" fill-rule="evenodd"/><path d="M334.667 320.608 362.424 320.608 362.424 349.754 334.667 349.754Z" fill="#DDEBF7" fill-rule="evenodd"/><path d="M362.424 320.608 390.182 320.608 390.182 349.754 362.424 349.754Z" fill="#DDEBF7" fill-rule="evenodd"/><path d="M390.182 320.608 417.939 320.608 417.939 349.754 390.182 349.754Z" fill="#DDEBF7" fill-rule="evenodd"/><path d="M417.939 320.608 445.697 320.608 445.697 349.754 417.939 349.754Z" fill="#DDEBF7" fill-rule="evenodd"/><path d="M445.697 320.608 473.454 320.608 473.454 349.754 445.697 349.754Z" fill="#DDEBF7" fill-rule="evenodd"/><path d="M528.97 320.608 556.727 320.608 556.727 349.754 528.97 349.754Z" fill="#DDEBF7" fill-rule="evenodd"/><path d="M556.727 320.608 584.485 320.608 584.485 349.754 556.727 349.754Z" fill="#DDEBF7" fill-rule="evenodd"/><path d="M584.485 320.608 612.242 320.608 612.242 349.754 584.485 349.754Z" fill="#DDEBF7" fill-rule="evenodd"/><path d="M612.242 320.608 640 320.608 640 349.754 612.242 349.754Z" fill="#DDEBF7" fill-rule="evenodd"/><path d="M640 320.608 667.758 320.608 667.758 349.754 640 349.754Z" fill="#F1E8F8" fill-rule="evenodd"/><path d="M695.515 320.608 723.273 320.608 723.273 349.754 695.515 349.754Z" fill="#F1E8F8" fill-rule="evenodd"/><path d="M723.273 320.608 751.03 320.608 751.03 349.754 723.273 349.754Z" fill="#F1E8F8" fill-rule="evenodd"/><path d="M751.03 320.608 778.788 320.608 778.788 349.754 751.03 349.754Z" fill="#F1E8F8" fill-rule="evenodd"/><path d="M778.788 320.608 806.545 320.608 806.545 349.754 778.788 349.754Z" fill="#F1E8F8" fill-rule="evenodd"/><path d="M806.545 320.608 834.303 320.608 834.303 349.754 806.545 349.754Z" fill="#F2F2F2" fill-rule="evenodd"/><path d="M834.303 320.608 862.061 320.608 862.061 349.754 834.303 349.754Z" fill="#F2F2F2" fill-rule="evenodd"/><path d="M889.818 320.608 917.576 320.608 917.576 349.754 889.818 349.754Z" fill="#F2F2F2" fill-rule="evenodd"/><path d="M917.576 320.608 945.333 320.608 945.333 349.754 917.576 349.754Z" fill="#F2F2F2" fill-rule="evenodd"/><path d="M945.333 320.608 973.091 320.608 973.091 349.754 945.333 349.754Z" fill="#F2F2F2" fill-rule="evenodd"/><path d="M973.091 320.608 1000.85 320.608 1000.85 349.754 973.091 349.754Z" fill="#F2F2F2" fill-rule="evenodd"/><path d="M1000.85 320.608 1028.61 320.608 1028.61 349.754 1000.85 349.754Z" fill="#F2F2F2" fill-rule="evenodd"/><path d="M1028.61 320.608 1056.36 320.608 1056.36 349.754 1028.61 349.754Z" fill="#F2F2F2" fill-rule="evenodd"/><path d="M1056.36 320.608 1084.12 320.608 1084.12 349.754 1056.36 349.754Z" fill="#F2F2F2" fill-rule="evenodd"/><path d="M1084.12 320.608 1111.88 320.608 1111.88 349.754 1084.12 349.754Z" fill="#F2F2F2" fill-rule="evenodd"/><path d="M1111.88 320.608 1139.64 320.608 1139.64 349.754 1111.88 349.754Z" fill="#F2F2F2" fill-rule="evenodd"/><path d="M1139.64 320.608 1167.39 320.608 1167.39 349.754 1139.64 349.754Z" fill="#F2F2F2" fill-rule="evenodd"/><path d="M1167.39 320.608 1195.15 320.608 1195.15 349.754 1167.39 349.754Z" fill="#F2F2F2" fill-rule="evenodd"/><path d="M1195.15 320.608 1222.91 320.608 1222.91 349.754 1195.15 349.754Z" fill="#F2F2F2" fill-rule="evenodd"/><path d="M195.879 378.9 223.636 378.9 223.636 408.045 195.879 408.045Z" fill="#E2EFDA" fill-rule="evenodd"/><path d="M223.636 378.9 251.394 378.9 251.394 408.045 223.636 408.045Z" fill="#E2EFDA" fill-rule="evenodd"/><path d="M251.394 378.9 279.151 378.9 279.151 408.045 251.394 408.045Z" fill="#E2EFDA" fill-rule="evenodd"/><path d="M279.151 378.9 306.909 378.9 306.909 408.045 279.151 408.045Z" fill="#DDEBF7" fill-rule="evenodd"/><path d="M306.909 378.9 334.667 378.9 334.667 408.045 306.909 408.045Z" fill="#DDEBF7" fill-rule="evenodd"/><path d="M334.667 378.9 362.424 378.9 362.424 408.045 334.667 408.045Z" fill="#DDEBF7" fill-rule="evenodd"/><path d="M390.182 378.9 417.939 378.9 417.939 408.045 390.182 408.045Z" fill="#DDEBF7" fill-rule="evenodd"/><path d="M417.939 378.9 445.697 378.9 445.697 408.045 417.939 408.045Z" fill="#DDEBF7" fill-rule="evenodd"/><path d="M445.697 378.9 473.454 378.9 473.454 408.045 445.697 408.045Z" fill="#DDEBF7" fill-rule="evenodd"/><path d="M473.454 378.9 501.212 378.9 501.212 408.045 473.454 408.045Z" fill="#DDEBF7" fill-rule="evenodd"/><path d="M501.212 378.9 528.97 378.9 528.97 408.045 501.212 408.045Z" fill="#DDEBF7" fill-rule="evenodd"/><path d="M528.97 378.9 556.727 378.9 556.727 408.045 528.97 408.045Z" fill="#DDEBF7" fill-rule="evenodd"/><path d="M584.485 378.9 612.242 378.9 612.242 408.045 584.485 408.045Z" fill="#DDEBF7" fill-rule="evenodd"/><path d="M612.242 378.9 640 378.9 640 408.045 612.242 408.045Z" fill="#DDEBF7" fill-rule="evenodd"/><path d="M640 378.9 667.758 378.9 667.758 408.045 640 408.045Z" fill="#F1E8F8" fill-rule="evenodd"/><path d="M667.758 378.9 695.515 378.9 695.515 408.045 667.758 408.045Z" fill="#F1E8F8" fill-rule="evenodd"/><path d="M695.515 378.9 723.273 378.9 723.273 408.045 695.515 408.045Z" fill="#F1E8F8" fill-rule="evenodd"/><path d="M751.03 378.9 778.788 378.9 778.788 408.045 751.03 408.045Z" fill="#F1E8F8" fill-rule="evenodd"/><path d="M778.788 378.9 806.545 378.9 806.545 408.045 778.788 408.045Z" fill="#F1E8F8" fill-rule="evenodd"/><path d="M806.545 378.9 834.303 378.9 834.303 408.045 806.545 408.045Z" fill="#F2F2F2" fill-rule="evenodd"/><path d="M834.303 378.9 862.061 378.9 862.061 408.045 834.303 408.045Z" fill="#F2F2F2" fill-rule="evenodd"/><path d="M862.061 378.9 889.818 378.9 889.818 408.045 862.061 408.045Z" fill="#F2F2F2" fill-rule="evenodd"/><path d="M889.818 378.9 917.576 378.9 917.576 408.045 889.818 408.045Z" fill="#F2F2F2" fill-rule="evenodd"/><path d="M917.576 378.9 945.333 378.9 945.333 408.045 917.576 408.045Z" fill="#F2F2F2" fill-rule="evenodd"/><path d="M945.333 378.9 973.091 378.9 973.091 408.045 945.333 408.045Z" fill="#F2F2F2" fill-rule="evenodd"/><path d="M84.8483 587.408 112.606 587.408 112.606 616.553 84.8483 616.553Z" fill="#E2EFDA" fill-rule="evenodd"/><path d="M112.606 587.408 140.363 587.408 140.363 616.553 112.606 616.553Z" fill="#E2EFDA" fill-rule="evenodd"/><path d="M140.363 587.408 168.121 587.408 168.121 616.553 140.363 616.553Z" fill="#E2EFDA" fill-rule="evenodd"/><path d="M168.121 587.408 195.879 587.408 195.879 616.553 168.121 616.553Z" fill="#E2EFDA" fill-rule="evenodd"/><path d="M195.879 587.408 223.636 587.408 223.636 616.553 195.879 616.553Z" fill="#E2EFDA" fill-rule="evenodd"/><path d="M223.636 587.408 251.394 587.408 251.394 616.553 223.636 616.553Z" fill="#E2EFDA" fill-rule="evenodd"/><path d="M251.394 587.408 279.151 587.408 279.151 616.553 251.394 616.553Z" fill="#E2EFDA" fill-rule="evenodd"/><path d="M279.151 587.408 306.909 587.408 306.909 616.553 279.151 616.553Z" fill="#DDEBF7" fill-rule="evenodd"/><path d="M306.909 587.408 334.667 587.408 334.667 616.553 306.909 616.553Z" fill="#DDEBF7" fill-rule="evenodd"/><path d="M334.667 587.408 362.424 587.408 362.424 616.553 334.667 616.553Z" fill="#DDEBF7" fill-rule="evenodd"/><path d="M362.424 587.408 390.182 587.408 390.182 616.553 362.424 616.553Z" fill="#DDEBF7" fill-rule="evenodd"/><path d="M390.182 587.408 417.939 587.408 417.939 616.553 390.182 616.553Z" fill="#DDEBF7" fill-rule="evenodd"/><path d="M417.939 587.408 445.697 587.408 445.697 616.553 417.939 616.553Z" fill="#DDEBF7" fill-rule="evenodd"/><path d="M445.697 587.408 473.454 587.408 473.454 616.553 445.697 616.553Z" fill="#DDEBF7" fill-rule="evenodd"/><path d="M473.454 587.408 501.212 587.408 501.212 616.553 473.454 616.553Z" fill="#DDEBF7" fill-rule="evenodd"/><path d="M501.212 587.408 528.97 587.408 528.97 616.553 501.212 616.553Z" fill="#DDEBF7" fill-rule="evenodd"/><path d="M528.97 587.408 556.727 587.408 556.727 616.553 528.97 616.553Z" fill="#DDEBF7" fill-rule="evenodd"/><path d="M556.727 587.408 584.485 587.408 584.485 616.553 556.727 616.553Z" fill="#DDEBF7" fill-rule="evenodd"/><path d="M584.485 587.408 612.242 587.408 612.242 616.553 584.485 616.553Z" fill="#DDEBF7" fill-rule="evenodd"/><path d="M612.242 587.408 640 587.408 640 616.553 612.242 616.553Z" fill="#DDEBF7" fill-rule="evenodd"/><path d="M640 587.408 667.758 587.408 667.758 616.553 640 616.553Z" fill="#F1E8F8" fill-rule="evenodd"/><path d="M667.758 587.408 695.515 587.408 695.515 616.553 667.758 616.553Z" fill="#F1E8F8" fill-rule="evenodd"/><path d="M695.515 587.408 723.273 587.408 723.273 616.553 695.515 616.553Z" fill="#F1E8F8" fill-rule="evenodd"/><path d="M723.273 587.408 751.03 587.408 751.03 616.553 723.273 616.553Z" fill="#F1E8F8" fill-rule="evenodd"/><path d="M751.03 587.408 778.788 587.408 778.788 616.553 751.03 616.553Z" fill="#F1E8F8" fill-rule="evenodd"/><path d="M778.788 587.408 806.545 587.408 806.545 616.553 778.788 616.553Z" fill="#F1E8F8" fill-rule="evenodd"/><path d="M806.545 587.408 834.303 587.408 834.303 616.553 806.545 616.553Z" fill="#F2F2F2" fill-rule="evenodd"/><path d="M834.303 587.408 862.061 587.408 862.061 616.553 834.303 616.553Z" fill="#F2F2F2" fill-rule="evenodd"/><path d="M862.061 587.408 889.818 587.408 889.818 616.553 862.061 616.553Z" fill="#F2F2F2" fill-rule="evenodd"/><path d="M889.818 587.408 917.576 587.408 917.576 616.553 889.818 616.553Z" fill="#F2F2F2" fill-rule="evenodd"/><path d="M917.576 587.408 945.333 587.408 945.333 616.553 917.576 616.553Z" fill="#F2F2F2" fill-rule="evenodd"/><path d="M945.333 587.408 973.091 587.408 973.091 616.553 945.333 616.553Z" fill="#F2F2F2" fill-rule="evenodd"/><path d="M973.091 587.408 1000.85 587.408 1000.85 616.553 973.091 616.553Z" fill="#F2F2F2" fill-rule="evenodd"/><path d="M1000.85 587.408 1028.61 587.408 1028.61 616.553 1000.85 616.553Z" fill="#F2F2F2" fill-rule="evenodd"/><path d="M1028.61 587.408 1056.36 587.408 1056.36 616.553 1028.61 616.553Z" fill="#F2F2F2" fill-rule="evenodd"/><path d="M1056.36 587.408 1084.12 587.408 1084.12 616.553 1056.36 616.553Z" fill="#F2F2F2" fill-rule="evenodd"/><path d="M1084.12 587.408 1111.88 587.408 1111.88 616.553 1084.12 616.553Z" fill="#F2F2F2" fill-rule="evenodd"/><path d="M1111.88 587.408 1139.64 587.408 1139.64 616.553 1111.88 616.553Z" fill="#F2F2F2" fill-rule="evenodd"/><path d="M1139.64 587.408 1167.39 587.408 1167.39 616.553 1139.64 616.553Z" fill="#F2F2F2" fill-rule="evenodd"/><path d="M1167.39 587.408 1195.15 587.408 1195.15 616.553 1167.39 616.553Z" fill="#F2F2F2" fill-rule="evenodd"/><path d="M1195.15 587.408 1222.91 587.408 1222.91 616.553 1195.15 616.553Z" fill="#F2F2F2" fill-rule="evenodd"/><path d="M84.8483 111.433 84.8483 141.912" stroke="#000000" stroke-width="1.33333" stroke-linejoin="round" stroke-miterlimit="10" fill="none" fill-rule="evenodd"/><path d="M84.8483 319.942 84.8483 350.421" stroke="#000000" stroke-width="1.33333" stroke-linejoin="round" stroke-miterlimit="10" fill="none" fill-rule="evenodd"/><path d="M84.8483 586.741 84.8483 617.22" stroke="#000000" stroke-width="1.33333" stroke-linejoin="round" stroke-miterlimit="10" fill="none" fill-rule="evenodd"/><path d="M195.879 378.233 195.879 408.712" stroke="#000000" stroke-width="1.33333" stroke-linejoin="round" stroke-miterlimit="10" fill="none" fill-rule="evenodd"/><path d="M223.636 319.942 223.636 350.421" stroke="#000000" stroke-width="1.33333" stroke-linejoin="round" stroke-miterlimit="10" fill="none" fill-rule="evenodd"/><path d="M251.394 319.942 251.394 350.421" stroke="#000000" stroke-width="1.33333" stroke-linejoin="round" stroke-miterlimit="10" fill="none" fill-rule="evenodd"/><path d="M279.151 111.433 279.151 141.912" stroke="#000000" stroke-width="1.33333" stroke-linejoin="round" stroke-miterlimit="10" fill="none" fill-rule="evenodd"/><path d="M279.151 319.942 279.151 350.421" stroke="#000000" stroke-width="1.33333" stroke-linejoin="round" stroke-miterlimit="10" fill="none" fill-rule="evenodd"/><path d="M279.151 378.233 279.151 408.712" stroke="#000000" stroke-width="1.33333" stroke-linejoin="round" stroke-miterlimit="10" fill="none" fill-rule="evenodd"/><path d="M279.151 586.741 279.151 617.22" stroke="#000000" stroke-width="1.33333" stroke-linejoin="round" stroke-miterlimit="10" fill="none" fill-rule="evenodd"/><path d="M362.424 378.233 362.424 408.712" stroke="#000000" stroke-width="1.33333" stroke-linejoin="round" stroke-miterlimit="10" fill="none" fill-rule="evenodd"/><path d="M390.182 378.233 390.182 408.712" stroke="#000000" stroke-width="1.33333" stroke-linejoin="round" stroke-miterlimit="10" fill="none" fill-rule="evenodd"/><path d="M473.454 319.942 473.454 350.421" stroke="#000000" stroke-width="1.33333" stroke-linejoin="round" stroke-miterlimit="10" fill="none" fill-rule="evenodd"/><path d="M528.97 319.942 528.97 350.421" stroke="#000000" stroke-width="1.33333" stroke-linejoin="round" stroke-miterlimit="10" fill="none" fill-rule="evenodd"/><path d="M556.727 378.233 556.727 408.712" stroke="#000000" stroke-width="1.33333" stroke-linejoin="round" stroke-miterlimit="10" fill="none" fill-rule="evenodd"/><path d="M584.485 378.233 584.485 408.712" stroke="#000000" stroke-width="1.33333" stroke-linejoin="round" stroke-miterlimit="10" fill="none" fill-rule="evenodd"/><path d="M640 111.433 640 141.912" stroke="#000000" stroke-width="1.33333" stroke-linejoin="round" stroke-miterlimit="10" fill="none" fill-rule="evenodd"/><path d="M640 319.942 640 350.421" stroke="#000000" stroke-width="1.33333" stroke-linejoin="round" stroke-miterlimit="10" fill="none" fill-rule="evenodd"/><path d="M640 378.233 640 408.712" stroke="#000000" stroke-width="1.33333" stroke-linejoin="round" stroke-miterlimit="10" fill="none" fill-rule="evenodd"/><path d="M640 586.741 640 617.22" stroke="#000000" stroke-width="1.33333" stroke-linejoin="round" stroke-miterlimit="10" fill="none" fill-rule="evenodd"/><path d="M667.758 319.942 667.758 350.421" stroke="#000000" stroke-width="1.33333" stroke-linejoin="round" stroke-miterlimit="10" fill="none" fill-rule="evenodd"/><path d="M695.515 319.942 695.515 350.421" stroke="#000000" stroke-width="1.33333" stroke-linejoin="round" stroke-miterlimit="10" fill="none" fill-rule="evenodd"/><path d="M723.273 378.233 723.273 408.712" stroke="#000000" stroke-width="1.33333" stroke-linejoin="round" stroke-miterlimit="10" fill="none" fill-rule="evenodd"/><path d="M751.03 378.233 751.03 408.712" stroke="#000000" stroke-width="1.33333" stroke-linejoin="round" stroke-miterlimit="10" fill="none" fill-rule="evenodd"/><path d="M806.545 111.433 806.545 141.912" stroke="#000000" stroke-width="1.33333" stroke-linejoin="round" stroke-miterlimit="10" fill="none" fill-rule="evenodd"/><path d="M806.545 319.942 806.545 350.421" stroke="#000000" stroke-width="1.33333" stroke-linejoin="round" stroke-miterlimit="10" fill="none" fill-rule="evenodd"/><path d="M806.545 378.233 806.545 408.712" stroke="#000000" stroke-width="1.33333" stroke-linejoin="round" stroke-miterlimit="10" fill="none" fill-rule="evenodd"/><path d="M806.545 586.741 806.545 617.22" stroke="#000000" stroke-width="1.33333" stroke-linejoin="round" stroke-miterlimit="10" fill="none" fill-rule="evenodd"/><path d="M862.061 319.942 862.061 350.421" stroke="#000000" stroke-width="1.33333" stroke-linejoin="round" stroke-miterlimit="10" fill="none" fill-rule="evenodd"/><path d="M889.818 319.942 889.818 350.421" stroke="#000000" stroke-width="1.33333" stroke-linejoin="round" stroke-miterlimit="10" fill="none" fill-rule="evenodd"/><path d="M973.091 378.233 973.091 408.712" stroke="#000000" stroke-width="1.33333" stroke-linejoin="round" stroke-miterlimit="10" fill="none" fill-rule="evenodd"/><path d="M1222.91 111.433 1222.91 141.912" stroke="#000000" stroke-width="1.33333" stroke-linejoin="round" stroke-miterlimit="10" fill="none" fill-rule="evenodd"/><path d="M1222.91 319.942 1222.91 350.421" stroke="#000000" stroke-width="1.33333" stroke-linejoin="round" stroke-miterlimit="10" fill="none" fill-rule="evenodd"/><path d="M1222.91 586.741 1222.91 617.22" stroke="#000000" stroke-width="1.33333" stroke-linejoin="round" stroke-miterlimit="10" fill="none" fill-rule="evenodd"/><path d="M84.1816 112.1 1223.58 112.1" stroke="#000000" stroke-width="1.33333" stroke-linejoin="round" stroke-miterlimit="10" fill="none" fill-rule="evenodd"/><path d="M84.1816 141.246 1223.58 141.246" stroke="#000000" stroke-width="1.33333" stroke-linejoin="round" stroke-miterlimit="10" fill="none" fill-rule="evenodd"/><path d="M28.6665 170.391 1251.33 170.391" stroke="#000000" stroke-width="1.33333" stroke-linejoin="round" stroke-miterlimit="10" fill="none" fill-rule="evenodd"/><path d="M28.6665 282.809 1251.33 282.809" stroke="#000000" stroke-width="1.33333" stroke-linejoin="round" stroke-miterlimit="10" fill="none" fill-rule="evenodd"/><path d="M84.1816 320.608 224.303 320.608" stroke="#000000" stroke-width="1.33333" stroke-linejoin="round" stroke-miterlimit="10" fill="none" fill-rule="evenodd"/><path d="M250.727 320.608 474.121 320.608" stroke="#000000" stroke-width="1.33333" stroke-linejoin="round" stroke-miterlimit="10" fill="none" fill-rule="evenodd"/><path d="M528.303 320.608 668.424 320.608" stroke="#000000" stroke-width="1.33333" stroke-linejoin="round" stroke-miterlimit="10" fill="none" fill-rule="evenodd"/><path d="M694.849 320.608 862.727 320.608" stroke="#000000" stroke-width="1.33333" stroke-linejoin="round" stroke-miterlimit="10" fill="none" fill-rule="evenodd"/><path d="M889.152 320.608 1223.58 320.608" stroke="#000000" stroke-width="1.33333" stroke-linejoin="round" stroke-miterlimit="10" fill="none" fill-rule="evenodd"/><path d="M84.1816 349.754 224.303 349.754" stroke="#000000" stroke-width="1.33333" stroke-linejoin="round" stroke-miterlimit="10" fill="none" fill-rule="evenodd"/><path d="M250.727 349.754 474.121 349.754" stroke="#000000" stroke-width="1.33333" stroke-linejoin="round" stroke-miterlimit="10" fill="none" fill-rule="evenodd"/><path d="M528.303 349.754 668.424 349.754" stroke="#000000" stroke-width="1.33333" stroke-linejoin="round" stroke-miterlimit="10" fill="none" fill-rule="evenodd"/><path d="M694.849 349.754 862.727 349.754" stroke="#000000" stroke-width="1.33333" stroke-linejoin="round" stroke-miterlimit="10" fill="none" fill-rule="evenodd"/><path d="M889.152 349.754 1223.58 349.754" stroke="#000000" stroke-width="1.33333" stroke-linejoin="round" stroke-miterlimit="10" fill="none" fill-rule="evenodd"/><path d="M195.212 378.9 363.091 378.9" stroke="#000000" stroke-width="1.33333" stroke-linejoin="round" stroke-miterlimit="10" fill="none" fill-rule="evenodd"/><path d="M389.515 378.9 557.394 378.9" stroke="#000000" stroke-width="1.33333" stroke-linejoin="round" stroke-miterlimit="10" fill="none" fill-rule="evenodd"/><path d="M583.818 378.9 723.939 378.9" stroke="#000000" stroke-width="1.33333" stroke-linejoin="round" stroke-miterlimit="10" fill="none" fill-rule="evenodd"/><path d="M750.364 378.9 973.758 378.9" stroke="#000000" stroke-width="1.33333" stroke-linejoin="round" stroke-miterlimit="10" fill="none" fill-rule="evenodd"/><path d="M195.212 408.045 363.091 408.045" stroke="#000000" stroke-width="1.33333" stroke-linejoin="round" stroke-miterlimit="10" fill="none" fill-rule="evenodd"/><path d="M389.515 408.045 557.394 408.045" stroke="#000000" stroke-width="1.33333" stroke-linejoin="round" stroke-miterlimit="10" fill="none" fill-rule="evenodd"/><path d="M583.818 408.045 723.939 408.045" stroke="#000000" stroke-width="1.33333" stroke-linejoin="round" stroke-miterlimit="10" fill="none" fill-rule="evenodd"/><path d="M750.364 408.045 973.758 408.045" stroke="#000000" stroke-width="1.33333" stroke-linejoin="round" stroke-miterlimit="10" fill="none" fill-rule="evenodd"/><path d="M28.6665 437.191 1251.33 437.191" stroke="#000000" stroke-width="1.33333" stroke-linejoin="round" stroke-miterlimit="10" fill="none" fill-rule="evenodd"/><path d="M28.6665 549.609 1251.33 549.609" stroke="#000000" stroke-width="1.33333" stroke-linejoin="round" stroke-miterlimit="10" fill="none" fill-rule="evenodd"/><path d="M84.1816 587.408 1223.58 587.408" stroke="#000000" stroke-width="1.33333" stroke-linejoin="round" stroke-miterlimit="10" fill="none" fill-rule="evenodd"/><path d="M84.1816 616.553 1223.58 616.553" stroke="#000000" stroke-width="1.33333" stroke-linejoin="round" stroke-miterlimit="10" fill="none" fill-rule="evenodd"/><path d="M29.3331 73.6344 29.3331 171.058" stroke="#000000" stroke-width="1.33333" stroke-linejoin="round" stroke-miterlimit="10" fill="none" fill-rule="evenodd"/><path d="M29.3331 282.143 29.3331 437.857" stroke="#000000" stroke-width="1.33333" stroke-linejoin="round" stroke-miterlimit="10" fill="none" fill-rule="evenodd"/><path d="M29.3331 548.942 29.3331 646.366" stroke="#000000" stroke-width="1.33333" stroke-linejoin="round" stroke-miterlimit="10" fill="none" fill-rule="evenodd"/><path d="M1250.67 73.6344 1250.67 171.058" stroke="#000000" stroke-width="1.33333" stroke-linejoin="round" stroke-miterlimit="10" fill="none" fill-rule="evenodd"/><path d="M1250.67 282.143 1250.67 437.857" stroke="#000000" stroke-width="1.33333" stroke-linejoin="round" stroke-miterlimit="10" fill="none" fill-rule="evenodd"/><path d="M1250.67 548.942 1250.67 646.366" stroke="#000000" stroke-width="1.33333" stroke-linejoin="round" stroke-miterlimit="10" fill="none" fill-rule="evenodd"/><path d="M28.6665 74.3011 1251.33 74.3011" stroke="#000000" stroke-width="1.33333" stroke-linejoin="round" stroke-miterlimit="10" fill="none" fill-rule="evenodd"/><path d="M28.6665 645.699 1251.33 645.699" stroke="#000000" stroke-width="1.33333" stroke-linejoin="round" stroke-miterlimit="10" fill="none" fill-rule="evenodd"/><g clip-path="url(#clip1)"><text font-family="Consolas,Consolas_MSFontService,sans-serif" font-weight="700" font-size="20" transform="translate(38.5114 100)">GENOME</text></g><g clip-path="url(#clip2)"><text font-family="Consolas,Consolas_MSFontService,sans-serif" font-weight="700" font-size="20" transform="translate(38.5114 309)">READS</text></g><g clip-path="url(#clip3)"><text font-family="Consolas,Consolas_MSFontService,sans-serif" font-weight="700" font-size="20" transform="translate(38.5114 576)">GENOME ASSEMBLY</text></g><path d="M643 189 643 243.647 637 243.647 637 189ZM649 240.647 640 258.647 631 240.647Z"/><text font-family="Consolas,Consolas_MSFontService,sans-serif" font-weight="700" font-size="24" transform="translate(663.718 232)">Sequencing</text><path d="M643 462 643 516.647 637 516.647 637 462ZM649 513.647 640 531.647 631 513.647Z"/><text font-family="Consolas,Consolas_MSFontService,sans-serif" font-weight="700" font-size="24" transform="translate(663.718 505)">Assembly</text></g></svg>